<svg xmlns:rdf="http://www.w3.org/1999/02/22-rdf-syntax-ns#" xmlns="http://www.w3.org/2000/svg" height="297mm" width="210mm" version="1.1" xmlns:cc="http://creativecommons.org/ns#" xmlns:dc="http://purl.org/dc/elements/1.1/" viewBox="0 0 210 297">
 <flowRoot style="word-spacing:0px;letter-spacing:0px" fill-opacity="0" xml:space="preserve" font-size="40px" transform="scale(.26458)" line-height="125%" font-family="CloisterBoldItalic"><flowRegion fill-opacity="0"><rect fill-opacity="0" height="662.86" width="400" y="245.38" x="285.71"/></flowRegion><flowPara>f</flowPara></flowRoot>
 <flowRoot style="word-spacing:0px;letter-spacing:0px" xml:space="preserve" font-size="40px" line-height="125%" font-family="CloisterBoldItalic" fill="black"><flowRegion><rect y="253.95" width="360" x="51.429" height="68.571"/></flowRegion><flowPara/></flowRoot>
 <g aria-label="f" transform="matrix(1.3745 0 0 1.3745 -54.918 -203.47)" fill="#1e73be">
  <path style="" d="m70.201 326.8q0-1.6875 4.0312-2.7188 10.781-2.7188 15-24.188l2.25-11.719 12.469-55.875-14.156 0.1875 1.3125-8.8125h15q5.9062-22.875 9.9375-33.375 3.2812-8.4375 8.25-14.438 8.0625-9.5625 20.344-9.5625 5.9062 0 10.312 3.0938 4.5 3 4.5 7.2188 0 3.4688-2.1562 6-2.0625 2.4375-4.7812 2.4375-4.0312 0-9.9375-5.7188-2.1562-2.1562-3.8438-2.1562-6.375 0-10.031 21.562-0.9375 5.5312-5.7188 25.125l14.625-0.1875-2.5312 8.4375-13.781-0.1875-16.312 73.688q-3.0938 15.75-10.781 24.938-7.6875 9.2812-17.25 9.2812-6.75 0-6.75-13.031z"/>
 </g>
</svg>
